# xmcd CD database file
#
# Track frame offsets:
# 151
# 12504
# 15621
# 18947
# 30154
# 41351
# 56817
# 69435
# 84363
# 98120
# 110576
# 112788
# 115481
# 127854
# 133836
# 149080
# 169245
# 179559
# 182704
# 185518
#
# Disc length: 2653 seconds
# Revision: 2
# Processed by: cddbd v1.5.2PL0 Copyright (c) Steve Scherf et al.
# Submitted via: MusicBin 0.4
#
DISCID=0f0a5b14
DTITLE=Tim Tindall - What Duck Done [CD1]
DYEAR=2008
DGENRE=Instructional
TTITLE0=You Don't Miss Your Water
TTITLE1=She Caught The Katy
TTITLE2=She Caught The Katy 2
TTITLE3=Heads Or Tails
TTITLE4=Hip-Hug-Her
TTITLE5=Time Is Tight
TTITLE6=But It's Alright
TTITLE7=Knock On Wood
TTITLE8=634-5789
TTITLE9=Born Under A Bad Sign
TTITLE10=Crosscut Saw
TTITLE11=Don't Bother Me
TTITLE12=You're Gonna Need Me
TTITLE13=Going Down
TTITLE14=Key To The Highway
TTITLE15=Grab This Thing
TTITLE16=(In The) Midnight Hour
TTITLE17=Ninety-Nine And One Half (Won't Do)
TTITLE18=Funky Broadway
TTITLE19=634-5789 (Soulsville USA)
EXTD=
EXTT0=
EXTT1=
EXTT2=
EXTT3=
EXTT4=
EXTT5=
EXTT6=
EXTT7=
EXTT8=
EXTT9=
EXTT10=
EXTT11=
EXTT12=
EXTT13=
EXTT14=
EXTT15=
EXTT16=
EXTT17=
EXTT18=
EXTT19=
PLAYORDER=
